<svg viewBox="100 100 200 200" xmlns="http://www.w3.org/2000/svg">
  <!-- Musical note-like symbol made with ellipses - White version for favicon -->
  <g transform="translate(200, 200)">
    <!-- Top part - like a note head -->
    <ellipse cx="-20" cy="-60" rx="55" ry="18" fill="none" stroke="white" stroke-width="3" transform="rotate(-25 -20 -60)"/>
    <ellipse cx="-18" cy="-60" rx="48" ry="15" fill="none" stroke="white" stroke-width="2" transform="rotate(-25 -18 -60)"/>
    <ellipse cx="-16" cy="-60" rx="41" ry="12" fill="none" stroke="white" stroke-width="1.8" transform="rotate(-25 -16 -60)"/>
    <ellipse cx="-14" cy="-60" rx="34" ry="10" fill="none" stroke="white" stroke-width="1.6" transform="rotate(-25 -14 -60)"/>
    <ellipse cx="-12" cy="-60" rx="27" ry="8" fill="none" stroke="white" stroke-width="1.4" transform="rotate(-25 -12 -60)"/>
    <ellipse cx="-10" cy="-60" rx="20" ry="6" fill="none" stroke="white" stroke-width="1.2" transform="rotate(-25 -10 -60)"/>

    <!-- Middle flowing section -->
    <ellipse cx="-8" cy="-30" rx="30" ry="12" fill="none" stroke="white" stroke-width="2" transform="rotate(-15 -8 -30)"/>
    <ellipse cx="-6" cy="-30" rx="25" ry="10" fill="none" stroke="white" stroke-width="1.6" transform="rotate(-15 -6 -30)"/>
    <ellipse cx="-4" cy="-30" rx="20" ry="8" fill="none" stroke="white" stroke-width="1.4" transform="rotate(-15 -4 -30)"/>

    <ellipse cx="0" cy="0" rx="25" ry="10" fill="none" stroke="white" stroke-width="2" transform="rotate(0 0 0)"/>
    <ellipse cx="0" cy="0" rx="20" ry="8" fill="none" stroke="white" stroke-width="1.6" transform="rotate(0 0 0)"/>
    <ellipse cx="0" cy="0" rx="15" ry="6" fill="none" stroke="white" stroke-width="1.4" transform="rotate(0 0 0)"/>

    <ellipse cx="8" cy="30" rx="30" ry="12" fill="none" stroke="white" stroke-width="2" transform="rotate(15 8 30)"/>
    <ellipse cx="6" cy="30" rx="25" ry="10" fill="none" stroke="white" stroke-width="1.6" transform="rotate(15 6 30)"/>
    <ellipse cx="4" cy="30" rx="20" ry="8" fill="none" stroke="white" stroke-width="1.4" transform="rotate(15 4 30)"/>

    <!-- Bottom part - like another note head -->
    <ellipse cx="20" cy="60" rx="55" ry="18" fill="none" stroke="white" stroke-width="3" transform="rotate(25 20 60)"/>
    <ellipse cx="18" cy="60" rx="48" ry="15" fill="none" stroke="white" stroke-width="2" transform="rotate(25 18 60)"/>
    <ellipse cx="16" cy="60" rx="41" ry="12" fill="none" stroke="white" stroke-width="1.8" transform="rotate(25 16 60)"/>
    <ellipse cx="14" cy="60" rx="34" ry="10" fill="none" stroke="white" stroke-width="1.6" transform="rotate(25 14 60)"/>
    <ellipse cx="12" cy="60" rx="27" ry="8" fill="none" stroke="white" stroke-width="1.4" transform="rotate(25 12 60)"/>
    <ellipse cx="10" cy="60" rx="20" ry="6" fill="none" stroke="white" stroke-width="1.2" transform="rotate(25 10 60)"/>
  </g>
</svg>